<svg width="28" height="21" viewBox="10 0 10 21" fill="none" xmlns="http://www.w3.org/2000/svg">
<path opacity="0.983" d="M9.12414 1.81616C8.44938 4.78799 8.00594 7.80762 7.7977 10.848C7.85213 13.2669 8.84106 15.5708 10.557 17.2766C12.2729 18.9823 14.5825 19.9573 17.0016 19.9971H17.1548L17.1842 20.799H16.9756C14.4153 21.1684 11.8033 20.7478 9.48838 19.5935C7.17345 18.4392 5.26593 16.606 4.0203 14.3388C3.47201 13.2692 3.11453 12.1122 2.9642 10.9197C2.81754 10.007 2.7524 9.09766 2.73285 8.99336L2.32227 1.82268L9.12414 1.81616Z" fill="#E1E1E1"/>
<path opacity="0.58" d="M9.12119 1.87056C9.12119 1.85426 9.00381 2.29103 8.8604 2.93965H2.39431L2.32568 1.87056H9.12119Z" fill="#7B7B82" stroke="#707070" stroke-width="0.0228151"/>
<path opacity="0.88" d="M11.1329 1.62853V3.55161C11.1329 3.55161 10.8331 3.90687 10.4029 4.39904C9.39578 5.54961 7.65539 7.44007 7.6945 6.74582L8.02034 1.35474L11.1329 1.62853Z" fill="#5B5C64" stroke="#707070" stroke-width="0.0228151"/>
<path d="M7.25024 10.5677C7.20671 11.8662 7.41937 13.1605 7.87606 14.3768C8.33275 15.593 9.0245 16.7074 9.91187 17.6563C10.7992 18.6051 11.8648 19.3699 13.0477 19.9069C14.2307 20.4439 15.5079 20.7426 16.8062 20.786H16.9789C19.6585 20.786 22.2284 19.7215 24.1231 17.8266C26.0179 15.9317 27.0824 13.3616 27.0824 10.6818C27.0824 8.00204 26.0179 5.43201 24.1231 3.53711C22.2284 1.64221 19.6585 0.577654 16.9789 0.577653C15.5077 0.574971 14.0538 0.894595 12.7193 1.51401C11.3848 2.13342 10.2023 3.0376 9.25462 4.16302C7.83147 5.98144 7.11899 8.2558 7.25024 10.5612V10.5677Z" fill="#5B5C64" stroke="#707070" stroke-width="0.0228151"/>
<path d="M16.9786 0.577957C19.6582 0.577957 22.228 1.64252 24.1228 3.53741C26.0176 5.43231 27.0821 8.00235 27.0821 10.6821C27.0364 13.3589 25.9484 15.9123 24.0494 17.7992C22.1504 19.6862 19.5902 20.7578 16.9134 20.7863C16.8905 20.6917 17.0666 20.5907 17.047 20.4929C19.6782 20.486 22.1989 19.4341 24.0546 17.5685C25.9103 15.703 26.9489 13.1766 26.942 10.5452C26.9351 7.91384 25.8832 5.39299 24.0178 3.53722C22.1524 1.68144 19.6261 0.642758 16.9949 0.649674C15.5664 0.645278 14.1543 0.955147 12.8588 1.55728C11.5634 2.15941 10.4164 3.03908 9.49879 4.13398C8.1743 5.96003 7.54434 8.19862 7.72238 10.4474C7.72278 11.0172 7.76751 11.586 7.85605 12.1489C7.69174 12.1291 7.52848 12.1008 7.36709 12.0641C7.29809 11.564 7.2633 11.0598 7.26286 10.555C7.1297 8.25035 7.84242 5.97633 9.26724 4.16004C10.2149 3.03462 11.3975 2.13044 12.7319 1.51103C14.0664 0.891616 15.5203 0.572041 16.9915 0.574724L16.9786 0.577957ZM17.122 1.16791C19.5821 1.16791 21.9413 2.14522 23.6808 3.88486C25.4203 5.6245 26.3977 7.98399 26.3977 10.4442C26.3977 12.9044 25.4203 15.2639 23.6808 17.0035C21.9413 18.7431 19.5821 19.7205 17.122 19.7205C14.7098 19.5821 12.4331 18.5595 10.7274 16.8482C9.02157 15.1369 8.00626 12.857 7.87555 10.4442C7.80963 9.21119 8.00352 7.97807 8.44448 6.82472C8.88543 5.67138 9.56365 4.62353 10.4353 3.74903C11.307 2.87454 12.3527 2.1929 13.5046 1.74826C14.6564 1.30363 15.8889 1.10589 17.122 1.16791Z" fill="#5B5C64"/>
<path d="M16.9576 0.589826C18.277 0.581241 19.585 0.832874 20.807 1.33027C22.0291 1.82768 23.141 2.56112 24.0794 3.48866C25.0177 4.41619 25.7641 5.5196 26.2757 6.73583C26.7873 7.95206 27.0542 9.25724 27.0611 10.5767V10.6973C27.0494 13.3451 25.9988 15.8824 24.1355 17.7635C22.2722 19.6446 19.745 20.7191 17.0977 20.7558C17.0749 20.658 17.0976 20.6971 17.0748 20.5993C18.7457 20.5786 20.3848 20.1387 21.8417 19.3203C23.2985 18.5018 24.5267 17.3308 25.4138 15.9146C26.3008 14.4984 26.8181 12.8822 26.9186 11.2141C27.0192 9.54599 26.6996 7.87932 25.9891 6.3668C25.2785 4.85428 24.1998 3.54425 22.8518 2.55673C21.5038 1.56921 19.9294 0.935784 18.2731 0.714461C16.6168 0.493138 14.9316 0.691009 13.3716 1.28994C11.8116 1.88887 10.4268 2.86972 9.34413 4.14262C8.05654 5.98198 7.47027 8.22172 7.69165 10.4561C7.69208 11.0258 7.73681 11.5947 7.82533 12.1575C7.65911 12.1379 7.4994 12.1086 7.33319 12.0728C7.2643 11.5727 7.22932 11.0685 7.22875 10.5637C7.10203 8.25826 7.81541 5.98504 9.23651 4.1654C10.218 3.07716 11.4094 2.19861 12.739 1.58248C14.0686 0.966351 15.5092 0.625398 16.9739 0.580078L16.9576 0.589826ZM16.8011 1.3819C19.2285 1.3102 21.5854 2.20389 23.3551 3.86714C25.1247 5.53039 26.1628 7.8275 26.2417 10.2549C26.3206 12.6823 25.4341 15.042 23.7762 16.8167C22.1183 18.5914 19.8244 19.6364 17.3974 19.7226H17.1042C14.6755 19.6275 12.372 18.6193 10.6543 16.8996C8.93647 15.1799 7.9308 12.8753 7.83826 10.4463C7.82093 9.25965 8.04015 8.08148 8.48318 6.98052C8.9262 5.87957 9.58413 4.8779 10.4185 4.03405C11.2529 3.19019 12.2471 2.52107 13.3429 2.0657C14.4388 1.61033 15.6144 1.37788 16.8011 1.3819Z" fill="#5B5C64"/>
<path d="M7.72021 10.6029C7.72226 11.8064 7.96214 12.9977 8.4264 14.1081C8.89066 15.2185 9.56999 16.226 10.4252 17.0728C12.1684 18.7895 14.5168 19.7517 16.9633 19.7517C19.4098 19.7517 21.758 18.7895 23.5012 17.0728C24.3591 16.2279 25.0403 15.2207 25.5054 14.11C25.9704 12.9992 26.21 11.8071 26.21 10.6029C26.21 9.3987 25.9704 8.20654 25.5054 7.0958C25.0403 5.98505 24.3591 4.97791 23.5012 4.13296C21.758 2.4163 19.4098 1.4541 16.9633 1.4541C14.5168 1.4541 12.1684 2.4163 10.4252 4.13296C9.56898 4.97897 8.88915 5.98643 8.42481 7.09699C7.96048 8.20755 7.721 9.39915 7.72021 10.6029Z" fill="#5B5C64" stroke="#707070" stroke-width="0.0228151"/>
<path d="M7.9541 10.6865C7.95458 11.8674 8.19057 13.0364 8.64835 14.125C9.10613 15.2135 9.77648 16.1998 10.6201 17.0261C12.3457 18.7084 14.6602 19.65 17.0701 19.65C19.48 19.65 21.7945 18.7084 23.5201 17.0261C24.3642 16.2002 25.0349 15.2139 25.4928 14.1253C25.9507 13.0367 26.1865 11.8675 26.1865 10.6865C26.1865 9.50549 25.9507 8.3364 25.4928 7.24776C25.0349 6.15913 24.3642 5.17291 23.5201 4.34699C21.7953 2.66311 19.4805 1.72046 17.0701 1.72046C14.6597 1.72046 12.3449 2.66311 10.6201 4.34699C9.77619 5.17306 9.10556 6.15931 8.64776 7.24791C8.18995 8.33652 7.95422 9.50555 7.9541 10.6865Z" fill="#5B5C64" stroke="#707070" stroke-width="0.0228151"/>
<path d="M16.9789 1.72046C17.7388 1.73178 18.4959 1.81365 19.2407 1.96495C21.2284 2.43969 22.9994 3.5679 24.2697 5.16891C21.6414 6.71864 19.2404 8.62507 17.1352 10.8338C15.0939 8.52137 12.7229 6.52254 10.0986 4.90168C11.6807 3.06008 13.9292 1.92175 16.3499 1.73677C16.565 1.73677 16.7768 1.73677 16.9789 1.73677V1.72046Z" fill="#5B5C64" stroke="#707070" stroke-width="0.0228151"/>
<path d="M17.1381 10.897L24.2107 16.2619C23.3397 17.3265 22.2411 18.1824 20.996 18.7669C19.751 19.3514 18.3907 19.6496 17.0153 19.6396C15.6399 19.6296 14.2844 19.3117 13.048 18.7091C11.8115 18.1066 10.7256 17.2348 9.87012 16.1576L17.1381 10.897Z" fill="#5B5C64" stroke="#707070" stroke-width="0.0228151"/>
<path d="M2.43694 1.39528L3.871 1.59735C3.82413 4.54261 3.94054 7.4882 4.21971 10.4206C4.42718 11.5806 4.76845 12.7126 5.23662 13.7941C6.39718 16.1219 8.27338 18.0162 10.5899 19.1989C12.9065 20.3816 15.5412 20.7903 18.1071 20.365C19.2709 20.1698 20.4157 19.8754 21.5293 19.485C20.1859 20.0793 18.755 20.4513 17.2923 20.5867L17.3413 20.717C17.2305 20.717 17.0969 20.717 17.0154 20.717C12.8274 20.9256 6.6153 20.1108 4.04705 14.2374C3.54044 13.2023 3.19211 12.0969 3.01382 10.9583C2.86716 10.0457 2.80529 8.94405 2.78247 8.83975C2.62929 6.24852 2.48902 3.69969 2.41406 1.37573L2.43694 1.39528ZM9.14114 1.61038C9.0727 1.89069 8.16339 7.25894 7.89288 8.33455C7.82391 9.20952 7.80209 10.0875 7.82763 10.9649C7.92334 13.3791 8.94172 15.6647 10.6729 17.3501C11.3185 17.9501 12.0488 18.4519 12.8404 18.8396C12.0237 18.5118 11.2559 18.0731 10.5589 17.5358C8.59615 15.8833 7.31813 13.5597 6.97364 11.017C6.97364 10.8932 6.91184 9.71326 6.93465 9.27976C7.05199 7.10247 7.70051 2.10907 7.76895 1.65927L9.14114 1.61038ZM12.8404 18.8396C13.9624 19.3319 15.1523 19.6517 16.3699 19.7881C15.1423 19.7173 13.9419 19.3991 12.8404 18.8527V18.8396Z" fill="#5B5C64"/>
<path d="M11.3363 0.669232H1.07626C1.03791 0.668342 1.00065 0.682521 0.972619 0.708721C0.944593 0.734922 0.927964 0.771055 0.92627 0.809384V1.72853C0.926693 1.74779 0.931038 1.7668 0.938802 1.78443C0.946566 1.80206 0.957702 1.81801 0.971625 1.83133C0.985547 1.84465 1.002 1.85509 1.01996 1.86207C1.03792 1.86904 1.057 1.8724 1.07626 1.87196H11.3363C11.3755 1.87285 11.4135 1.85834 11.4421 1.83153C11.4707 1.80472 11.4877 1.76772 11.4894 1.72853V0.809384C11.4869 0.770769 11.4696 0.734644 11.4411 0.708522C11.4125 0.682401 11.3749 0.668309 11.3363 0.669232Z" fill="#E1E1E1" stroke="#5B5C64" stroke-width="0.0586675"/>
<path d="M9.12031 1.87134V1.91043C9.08772 2.02777 9.02904 2.40913 8.90845 2.93715H7.60469C7.6764 2.44498 7.73517 2.03431 7.76125 1.87134H9.12031ZM3.86966 1.87134V2.94043H2.49428C2.47799 2.57864 2.46177 2.22009 2.44873 1.87134H3.86966Z" fill="#5B5C64"/>
<path opacity="0.997" d="M7.6748 10.7993C7.6748 13.2906 8.66442 15.6799 10.426 17.4416C12.1875 19.2032 14.5765 20.1929 17.0677 20.1929C18.3012 20.1942 19.523 19.9525 20.6631 19.4816C21.8032 19.0107 22.8393 18.3198 23.7124 17.4485C24.5855 16.5771 25.2786 15.5423 25.7518 14.4031C26.225 13.2639 26.4692 12.0426 26.4705 10.8091C26.4697 8.31828 25.4796 5.92982 23.7182 4.16889C21.9567 2.40795 19.5681 1.41871 17.0774 1.41871C15.8441 1.417 14.6225 1.65829 13.4824 2.12882C12.3424 2.59935 11.3061 3.28987 10.4329 4.16098C9.55974 5.03209 8.86679 6.06672 8.39352 7.20573C7.92025 8.34474 7.67609 9.56582 7.6748 10.7993Z" fill="#E1E1E1"/>
<path d="M17.0821 1.39624C14.9092 1.39868 12.8045 2.15441 11.1263 3.53473C9.44808 4.91505 8.30026 6.83456 7.87843 8.96625C7.45661 11.0979 7.78676 13.3099 8.81279 15.2254C9.83882 17.141 11.4973 18.6415 13.5055 19.4714C15.5136 20.3013 17.7475 20.4092 19.8263 19.7769C21.9052 19.1445 23.7004 17.8109 24.9063 16.0032C26.1122 14.1956 26.6543 12.0257 26.44 9.86331C26.2257 7.70087 25.2684 5.67965 23.731 4.14393C21.966 2.38375 19.5748 1.39559 17.0821 1.39624ZM17.0821 1.80367C19.1607 1.80594 21.1743 2.52876 22.7798 3.84905C24.3852 5.16934 25.4833 7.00543 25.887 9.04453C26.2907 11.0836 25.9749 13.1996 24.9936 15.0321C24.0124 16.8645 22.4263 18.3001 20.5055 19.0943C18.5846 19.8885 16.4478 19.9921 14.4591 19.3876C12.4704 18.783 10.7527 17.5077 9.59875 15.7788C8.44477 14.0499 7.92599 11.9744 8.13047 9.90578C8.33496 7.83719 9.25015 5.90345 10.7203 4.43398C12.4114 2.75484 14.6991 1.81479 17.0821 1.81993V1.80367Z" fill="#E1E1E1"/>
<path d="M17.0786 1.39624C15.7948 1.39886 14.5251 1.66455 13.348 2.17692C12.1708 2.6893 11.1112 3.43751 10.2344 4.37534L10.6515 4.50898C11.4879 3.65492 12.4863 2.9764 13.5883 2.51318C14.6902 2.04996 15.8735 1.81137 17.0689 1.81137C18.2642 1.81137 19.4475 2.04996 20.5495 2.51318C21.6514 2.9764 22.6498 3.65492 23.4862 4.50898L23.8741 4.35251C22.9979 3.4286 21.9433 2.6922 20.7741 2.18797C19.6049 1.68373 18.3455 1.42216 17.0723 1.41907L17.0786 1.39624Z" fill="#E1E1E1"/>
<path opacity="0.265" d="M11.9976 10.7981C11.9908 11.9808 12.3946 13.1292 13.1401 14.0473C13.8856 14.9655 14.9265 15.5964 16.0854 15.8325C17.2442 16.0685 18.449 15.8951 19.4942 15.3417C20.5394 14.7884 21.3602 13.8894 21.8164 12.7982C22.2727 11.7071 22.3362 10.4914 21.9961 9.3587C21.6559 8.22597 20.9332 7.2464 19.9513 6.58719C18.9694 5.92798 17.7892 5.62995 16.6121 5.74404C15.435 5.85812 14.3338 6.37725 13.4968 7.21275C12.5426 8.16261 12.0037 9.45172 11.9976 10.7981Z" fill="black"/>
<path d="M17.0893 2.28271C16.9355 2.28271 16.788 2.3438 16.6792 2.45261C16.5704 2.56141 16.5093 2.709 16.5093 2.86287C16.5093 2.9382 16.524 3.0128 16.5528 3.0824C16.5817 3.152 16.6239 3.21524 16.6772 3.2685C16.7304 3.32177 16.7938 3.36401 16.8634 3.39284C16.933 3.42167 17.0075 3.43651 17.0828 3.43651C17.158 3.4363 17.2324 3.42123 17.3018 3.39214C17.3712 3.36306 17.4341 3.32052 17.487 3.26701C17.5655 3.18582 17.6184 3.08341 17.6392 2.97243C17.66 2.86146 17.6477 2.7468 17.604 2.64269C17.5602 2.53859 17.4869 2.44965 17.3931 2.38681C17.2993 2.32397 17.1891 2.29004 17.0762 2.28923L17.0893 2.28271ZM17.0893 2.46847C17.1405 2.46866 17.1911 2.47915 17.2381 2.49931C17.2852 2.51947 17.3276 2.54887 17.3631 2.5858C17.4001 2.62111 17.4296 2.66362 17.4498 2.71068C17.47 2.75774 17.4804 2.80838 17.4804 2.85959C17.4804 2.91079 17.47 2.96148 17.4498 3.00854C17.4296 3.05561 17.4001 3.09806 17.3631 3.13338C17.2907 3.20677 17.1924 3.24893 17.0893 3.25075C16.9862 3.24928 16.8878 3.20707 16.8156 3.13338C16.7662 3.07823 16.7334 3.01021 16.7211 2.93717C16.7088 2.86413 16.7175 2.78912 16.7462 2.72083C16.7749 2.65254 16.8223 2.59379 16.8831 2.55143C16.9438 2.50907 17.0154 2.4848 17.0893 2.4815V2.46847Z" fill="#5B5C64" stroke="#707070" stroke-width="0.0228151"/>
<path d="M20.1365 2.88745C19.9835 2.88745 19.8368 2.94826 19.7287 3.05645C19.6205 3.16464 19.5596 3.31137 19.5596 3.46437C19.5596 3.61738 19.6205 3.76415 19.7287 3.87235C19.8368 3.98054 19.9835 4.04129 20.1365 4.04129C20.2889 4.03896 20.4347 3.9783 20.5439 3.8718C20.6492 3.76351 20.7089 3.61876 20.7102 3.46766C20.7102 3.31378 20.6491 3.1662 20.5403 3.05739C20.4315 2.94859 20.2838 2.88745 20.1299 2.88745H20.1365ZM20.1365 3.07326C20.2392 3.07387 20.3374 3.11485 20.4102 3.18735C20.4821 3.26049 20.5231 3.35858 20.5244 3.46114C20.5244 3.56431 20.4836 3.66326 20.411 3.73652C20.3383 3.80978 20.2396 3.85139 20.1365 3.85225C20.0393 3.84336 19.949 3.79849 19.8832 3.72642C19.8175 3.65436 19.781 3.56029 19.781 3.46273C19.781 3.36517 19.8175 3.27115 19.8832 3.19909C19.949 3.12703 20.0393 3.08216 20.1365 3.07326Z" fill="#5B5C64" stroke="#707070" stroke-width="0.0228151"/>
<path d="M22.7073 4.63135C22.5543 4.63135 22.4076 4.69215 22.2995 4.80035C22.1913 4.90854 22.1304 5.05526 22.1304 5.20827C22.1304 5.36128 22.1913 5.508 22.2995 5.61619C22.4076 5.72438 22.5543 5.78519 22.7073 5.78519C22.8594 5.78519 23.0053 5.72472 23.1129 5.61714C23.2204 5.50956 23.281 5.36364 23.281 5.2115C23.281 5.05763 23.2199 4.91009 23.1111 4.80129C23.0023 4.69249 22.8546 4.63135 22.7007 4.63135H22.7073ZM22.7073 4.82039C22.8104 4.82125 22.9091 4.86286 22.9818 4.93612C23.0544 5.00938 23.0952 5.10833 23.0952 5.2115C23.0939 5.31406 23.0529 5.41216 22.981 5.48529C22.9082 5.55779 22.81 5.59878 22.7073 5.59938C22.6101 5.59049 22.5198 5.54562 22.454 5.47355C22.3883 5.40149 22.3518 5.30747 22.3518 5.20991C22.3518 5.11235 22.3883 5.01828 22.454 4.94622C22.5198 4.87416 22.6101 4.82929 22.7073 4.82039Z" fill="#5B5C64" stroke="#707070" stroke-width="0.0228151"/>
<path d="M24.4277 7.18262C24.313 7.18262 24.2009 7.21665 24.1055 7.2804C24.0101 7.34415 23.9357 7.43474 23.8918 7.54076C23.8479 7.64677 23.8364 7.76342 23.8588 7.87597C23.8812 7.98851 23.9364 8.09189 24.0175 8.17303C24.0987 8.25417 24.202 8.3094 24.3145 8.33178C24.4271 8.35417 24.5437 8.34272 24.6497 8.29881C24.7557 8.2549 24.8464 8.18051 24.9101 8.0851C24.9739 7.98969 25.008 7.87752 25.008 7.76277C25.008 7.6089 24.9469 7.46131 24.8381 7.35251C24.7293 7.24371 24.5816 7.18262 24.4277 7.18262ZM24.4277 7.36838C24.5183 7.36709 24.6066 7.39729 24.6774 7.45377C24.7482 7.51025 24.797 7.58955 24.8158 7.67812C24.8347 7.7667 24.8223 7.85908 24.7806 7.93948C24.739 8.01988 24.6707 8.0833 24.5875 8.11897C24.5042 8.15464 24.4112 8.16036 24.3243 8.13508C24.2373 8.10981 24.1618 8.05514 24.1106 7.98041C24.0595 7.90568 24.0359 7.81548 24.0438 7.72527C24.0517 7.63506 24.0906 7.55043 24.154 7.48575C24.2266 7.41264 24.3247 7.37054 24.4277 7.36838Z" fill="#5B5C64" stroke="#707070" stroke-width="0.0228151"/>
<path d="M25.0339 10.2244C24.9191 10.2244 24.807 10.2584 24.7116 10.3221C24.6162 10.3859 24.5417 10.4765 24.4978 10.5825C24.4539 10.6885 24.4424 10.8052 24.4648 10.9177C24.4871 11.0303 24.5426 11.1336 24.6237 11.2148C24.7048 11.2959 24.8082 11.3511 24.9207 11.3735C25.0332 11.3959 25.1499 11.3845 25.2559 11.3406C25.3619 11.2966 25.4525 11.2223 25.5163 11.1268C25.58 11.0314 25.614 10.9193 25.614 10.8045C25.614 10.6506 25.5529 10.5031 25.4441 10.3943C25.3353 10.2855 25.1877 10.2244 25.0339 10.2244ZM25.0339 10.4101C25.1106 10.4095 25.1858 10.4316 25.2499 10.4737C25.3141 10.5158 25.3642 10.5759 25.3941 10.6466C25.4241 10.7172 25.4323 10.7951 25.418 10.8705C25.4037 10.9458 25.3674 11.0153 25.3136 11.07C25.2598 11.1247 25.1911 11.1622 25.116 11.1778C25.0409 11.1934 24.9628 11.1863 24.8917 11.1576C24.8205 11.1288 24.7596 11.0796 24.7164 11.0162C24.6732 10.9528 24.6498 10.878 24.6492 10.8013C24.6487 10.7506 24.6584 10.7003 24.6774 10.6533C24.6964 10.6063 24.7246 10.5636 24.7602 10.5275C24.7955 10.4904 24.8378 10.4609 24.8849 10.4407C24.932 10.4205 24.9827 10.4101 25.0339 10.4101Z" fill="#5B5C64" stroke="#707070" stroke-width="0.0228151"/>
<path d="M24.4277 13.2676C24.313 13.2676 24.2009 13.3016 24.1055 13.3654C24.0101 13.4291 23.9357 13.5197 23.8918 13.6257C23.8479 13.7317 23.8364 13.8484 23.8588 13.9609C23.8812 14.0735 23.9364 14.1769 24.0175 14.258C24.0987 14.3391 24.202 14.3944 24.3145 14.4168C24.4271 14.4392 24.5437 14.4277 24.6497 14.3838C24.7557 14.3399 24.8464 14.2655 24.9101 14.1701C24.9739 14.0747 25.008 13.9625 25.008 13.8477C25.008 13.6939 24.9469 13.5463 24.8381 13.4375C24.7293 13.3287 24.5816 13.2676 24.4277 13.2676ZM24.4277 13.4533C24.5044 13.4527 24.5796 13.4748 24.6438 13.5169C24.7079 13.559 24.7582 13.6192 24.7882 13.6898C24.8181 13.7604 24.8264 13.8383 24.8121 13.9137C24.7977 13.989 24.7614 14.0585 24.7076 14.1132C24.6538 14.1679 24.585 14.2054 24.5099 14.221C24.4348 14.2366 24.3568 14.2296 24.2857 14.2008C24.2146 14.172 24.1536 14.1228 24.1104 14.0594C24.0673 13.996 24.0439 13.9212 24.0432 13.8445C24.0432 13.7419 24.0835 13.6434 24.1554 13.5702C24.2273 13.497 24.3251 13.455 24.4277 13.4533Z" fill="#939393" stroke="#707070" stroke-width="0.0228151"/>
<path d="M24.458 13.2727C24.3175 13.2725 24.182 13.3246 24.078 13.419C23.974 13.5134 23.9089 13.6433 23.8956 13.7831C23.8823 13.9229 23.9217 14.0627 24.006 14.175C24.0903 14.2874 24.2134 14.3642 24.3513 14.3905C24.4893 14.4168 24.6323 14.3906 24.752 14.3171C24.8717 14.2436 24.9596 14.1282 24.9987 13.9932C25.0377 13.8583 25.0249 13.7136 24.9628 13.5876C24.9008 13.4616 24.794 13.3632 24.6633 13.3118C24.598 13.2857 24.5283 13.2724 24.458 13.2727ZM24.458 13.4552C24.5348 13.4546 24.61 13.4768 24.6742 13.519C24.7384 13.5612 24.7888 13.6216 24.8186 13.6924C24.8485 13.7632 24.8565 13.8413 24.8419 13.9168C24.8273 13.9922 24.7908 14.0616 24.7367 14.1162C24.6826 14.1708 24.6135 14.2081 24.5381 14.2233C24.4628 14.2385 24.3846 14.231 24.3136 14.2018C24.2425 14.1725 24.1817 14.1228 24.1389 14.0589C24.0961 13.9951 24.0733 13.92 24.0732 13.8431C24.0726 13.7924 24.0821 13.7421 24.1011 13.6951C24.1201 13.648 24.1485 13.6053 24.1842 13.5693C24.2495 13.5033 24.336 13.4628 24.4285 13.4552H24.458Z" fill="#5B5C64" stroke="#707070" stroke-width="0.0228151"/>
<path d="M22.7021 15.8904C22.5483 15.8904 22.4008 15.9515 22.292 16.0603C22.1832 16.1691 22.1221 16.3167 22.1221 16.4706C22.1217 16.5456 22.1361 16.6199 22.1646 16.6893C22.1932 16.7587 22.2351 16.8217 22.2882 16.8747C22.3412 16.9284 22.4045 16.9711 22.4742 17.0002C22.5438 17.0293 22.6185 17.0443 22.694 17.0443C22.7695 17.0443 22.8443 17.0293 22.914 17.0002C22.9837 16.9711 23.0467 16.9284 23.0998 16.8747C23.1533 16.8219 23.1958 16.7589 23.2249 16.6896C23.254 16.6202 23.2691 16.5458 23.2693 16.4706C23.2693 16.3167 23.2082 16.1691 23.0994 16.0603C22.9906 15.9515 22.8431 15.8904 22.6892 15.8904H22.7021ZM22.7021 16.0762C22.8042 16.0782 22.9015 16.1203 22.9727 16.1935C23.0286 16.2477 23.0672 16.3174 23.0833 16.3936C23.0994 16.4698 23.0922 16.549 23.063 16.6212C23.0338 16.6934 22.9838 16.7553 22.9192 16.7988C22.8546 16.8423 22.7784 16.8656 22.7006 16.8656C22.6227 16.8656 22.5465 16.8423 22.4819 16.7988C22.4174 16.7553 22.3673 16.6934 22.3381 16.6212C22.3089 16.549 22.3017 16.4698 22.3178 16.3936C22.3339 16.3174 22.3725 16.2477 22.4284 16.1935C22.4631 16.1547 22.5051 16.1231 22.5522 16.1007C22.5992 16.0783 22.6501 16.0656 22.7021 16.0632V16.0762Z" fill="#5B5C64" stroke="#707070" stroke-width="0.0228151"/>
<path d="M20.1322 17.5625C20.0193 17.5633 19.9092 17.5972 19.8154 17.6601C19.7215 17.7229 19.6482 17.8119 19.6045 17.916C19.5608 18.0201 19.5487 18.1348 19.5695 18.2457C19.5903 18.3567 19.6432 18.4591 19.7217 18.5403C19.7747 18.5934 19.8377 18.6354 19.9071 18.664C19.9764 18.6925 20.0507 18.7069 20.1257 18.7065C20.278 18.7068 20.4244 18.6471 20.5331 18.5403C20.6392 18.4312 20.6989 18.2851 20.6994 18.1329C20.6994 17.979 20.6383 17.8314 20.5295 17.7226C20.4207 17.6138 20.2732 17.5527 20.1193 17.5527L20.1322 17.5625ZM20.1322 17.7515C20.235 17.7518 20.3334 17.7928 20.406 17.8656C20.4794 17.938 20.5215 18.0363 20.5233 18.1394C20.5233 18.2431 20.4821 18.3426 20.4087 18.416C20.3354 18.4893 20.236 18.5306 20.1322 18.5306C20.0285 18.5306 19.9291 18.4893 19.8557 18.416C19.7824 18.3426 19.7412 18.2431 19.7412 18.1394C19.7413 18.0882 19.7518 18.0376 19.772 17.9906C19.7921 17.9436 19.8216 17.901 19.8585 17.8656C19.9311 17.7928 20.0295 17.7518 20.1322 17.7515Z" fill="#5B5C64" stroke="#707070" stroke-width="0.0228151"/>
<path d="M17.094 18.1699C16.941 18.1699 16.7942 18.2307 16.686 18.3389C16.5778 18.4471 16.5171 18.5938 16.5171 18.7468C16.5171 18.8999 16.5778 19.0466 16.686 19.1548C16.7942 19.263 16.941 19.3238 17.094 19.3238C17.2456 19.3221 17.3906 19.2611 17.4978 19.1539C17.605 19.0467 17.666 18.9017 17.6677 18.7501C17.6677 18.5962 17.6064 18.4487 17.4976 18.3399C17.3888 18.2311 17.2413 18.1699 17.0874 18.1699H17.094ZM17.094 18.3557C17.1451 18.3559 17.1957 18.3664 17.2428 18.3866C17.2898 18.4067 17.3323 18.4361 17.3677 18.4731C17.4048 18.5084 17.4343 18.5508 17.4544 18.5979C17.4746 18.645 17.4851 18.6956 17.4851 18.7468C17.4851 18.798 17.4746 18.8487 17.4544 18.8958C17.4343 18.9429 17.4048 18.9853 17.3677 19.0206C17.3323 19.0576 17.2898 19.087 17.2428 19.1071C17.1957 19.1273 17.1451 19.1378 17.094 19.138C17.0194 19.136 16.9469 19.1126 16.8853 19.0704C16.8237 19.0283 16.7756 18.9692 16.7467 18.9004C16.7177 18.8316 16.7093 18.7559 16.7224 18.6824C16.7354 18.6089 16.7694 18.5407 16.8203 18.4861C16.854 18.4454 16.8957 18.412 16.9428 18.388C16.9898 18.3639 17.0412 18.3496 17.094 18.3459V18.3557Z" fill="#5B5C64" stroke="#707070" stroke-width="0.0228151"/>
<path d="M14.1062 17.6167C13.9529 17.6176 13.8061 17.6791 13.698 17.7878C13.5899 17.8965 13.5293 18.0436 13.5293 18.1969C13.5289 18.2719 13.5433 18.3463 13.5719 18.4156C13.6004 18.485 13.6424 18.548 13.6954 18.601C13.7485 18.6548 13.8117 18.6974 13.8814 18.7265C13.9511 18.7556 14.0257 18.7706 14.1012 18.7706C14.1767 18.7706 14.2514 18.7556 14.321 18.7265C14.3907 18.6974 14.454 18.6548 14.507 18.601C14.5605 18.5482 14.6031 18.4852 14.6322 18.4159C14.6612 18.3465 14.6763 18.2721 14.6765 18.1969C14.6765 18.043 14.6154 17.8954 14.5066 17.7866C14.3978 17.6778 14.2501 17.6167 14.0962 17.6167H14.1062ZM14.1062 17.8025C14.2094 17.804 14.3077 17.8461 14.3799 17.9198C14.4168 17.9553 14.4463 17.9978 14.4664 18.0448C14.4866 18.0919 14.4971 18.1424 14.4973 18.1936C14.4948 18.2966 14.4527 18.3946 14.3799 18.4675C14.3071 18.5403 14.2091 18.5823 14.1062 18.5848C14.055 18.5844 14.0044 18.5738 13.9574 18.5537C13.9104 18.5336 13.8678 18.5042 13.8323 18.4674C13.7595 18.3949 13.7185 18.2964 13.7183 18.1936C13.718 18.1427 13.7279 18.0922 13.7475 18.0452C13.7671 17.9982 13.7959 17.9555 13.8323 17.9198C13.9049 17.8467 14.0032 17.8047 14.1062 17.8025Z" fill="#5B5C64" stroke="#707070" stroke-width="0.0228151"/>
<path d="M11.4727 15.844C11.3963 15.8436 11.3206 15.8583 11.2501 15.8873C11.1795 15.9163 11.1154 15.959 11.0615 16.013C11.0075 16.0669 10.9648 16.1311 10.9358 16.2016C10.9068 16.2722 10.8922 16.3478 10.8926 16.4242C10.8926 16.5763 10.9529 16.7222 11.0605 16.8298C11.1681 16.9374 11.314 16.9978 11.4661 16.9978C11.5413 16.9976 11.6157 16.9825 11.6851 16.9534C11.7545 16.9243 11.8174 16.8819 11.8703 16.8284C11.9488 16.7472 12.0017 16.6447 12.0225 16.5337C12.0433 16.4227 12.031 16.3081 11.9873 16.204C11.9436 16.0999 11.8702 16.0109 11.7764 15.9481C11.6826 15.8853 11.5724 15.8513 11.4595 15.8505L11.4727 15.844ZM11.4727 16.0298C11.5238 16.0299 11.5744 16.0404 11.6215 16.0606C11.6685 16.0808 11.711 16.1102 11.7464 16.1471C11.8201 16.2194 11.8623 16.3178 11.8637 16.4209C11.8619 16.524 11.8198 16.6223 11.7464 16.6947C11.7108 16.7312 11.6683 16.7601 11.6213 16.7797C11.5742 16.7993 11.5236 16.8092 11.4727 16.8088C11.4212 16.8091 11.3702 16.7991 11.3227 16.7796C11.2751 16.76 11.2319 16.7311 11.1956 16.6947C11.1234 16.6218 11.0825 16.5236 11.0816 16.4209C11.0824 16.3175 11.1238 16.2185 11.1969 16.1453C11.2701 16.0721 11.3692 16.0306 11.4727 16.0298Z" fill="#5B5C64" stroke="#707070" stroke-width="0.0228151"/>
<path d="M9.74843 13.2644C9.6342 13.2632 9.52221 13.2958 9.42657 13.3582C9.33092 13.4207 9.25589 13.5102 9.21113 13.6153C9.16637 13.7204 9.15387 13.8364 9.17512 13.9486C9.19638 14.0609 9.2504 14.1643 9.33048 14.2458C9.41057 14.3272 9.51303 14.3831 9.62489 14.4062C9.73676 14.4294 9.85305 14.4188 9.95889 14.3759C10.0647 14.3329 10.1554 14.2595 10.2195 14.1649C10.2836 14.0703 10.3181 13.9588 10.3187 13.8446C10.3188 13.6924 10.2589 13.5463 10.1522 13.4378C10.0456 13.3292 9.90059 13.267 9.74843 13.2644ZM9.74843 13.4502C9.85216 13.4502 9.95159 13.4914 10.0249 13.5648C10.0983 13.6381 10.1395 13.7376 10.1395 13.8414C10.1395 13.9451 10.0983 14.0446 10.0249 14.1179C9.95159 14.1913 9.85216 14.2325 9.74843 14.2325C9.64549 14.23 9.54751 14.188 9.47471 14.1152C9.40221 14.0424 9.36113 13.9441 9.36052 13.8414C9.36136 13.7384 9.40244 13.6399 9.4749 13.5668C9.54737 13.4938 9.64553 13.4519 9.74843 13.4502Z" fill="#5B5C64" stroke="#707070" stroke-width="0.0228151"/>
<path d="M9.20497 10.2896C9.09075 10.2883 8.97856 10.3209 8.88291 10.3834C8.78726 10.4458 8.71243 10.5353 8.66767 10.6404C8.62292 10.7455 8.61041 10.8615 8.63167 10.9738C8.65292 11.086 8.70694 11.1894 8.78703 11.2709C8.86711 11.3524 8.96958 11.4082 9.08144 11.4314C9.1933 11.4546 9.30959 11.444 9.41543 11.401C9.52128 11.358 9.61196 11.2846 9.67603 11.19C9.7401 11.0955 9.77464 10.984 9.77529 10.8697C9.77531 10.7175 9.71548 10.5714 9.60879 10.4629C9.5021 10.3544 9.35713 10.2922 9.20497 10.2896ZM9.20497 10.4753C9.3087 10.4753 9.40813 10.5166 9.48148 10.5899C9.55482 10.6633 9.59606 10.7627 9.59606 10.8665C9.59606 10.9702 9.55482 11.0697 9.48148 11.143C9.40813 11.2164 9.3087 11.2576 9.20497 11.2576C9.15383 11.2573 9.10318 11.2467 9.05617 11.2265C9.00917 11.2064 8.96659 11.177 8.93105 11.1402C8.85736 11.068 8.81535 10.9696 8.81388 10.8665C8.81604 10.7634 8.85795 10.6653 8.93105 10.5927C8.96659 10.5559 9.00917 10.5266 9.05617 10.5064C9.10318 10.4863 9.15383 10.4757 9.20497 10.4753Z" fill="#5B5C64" stroke="#707070" stroke-width="0.0228151"/>
<path d="M9.7473 7.1853C9.59401 7.18616 9.4472 7.24768 9.33911 7.35639C9.23101 7.4651 9.17042 7.61215 9.17042 7.76546C9.17002 7.84047 9.18446 7.91481 9.21299 7.98419C9.24152 8.05357 9.28346 8.11662 9.33652 8.16965C9.38957 8.22336 9.45286 8.26598 9.52252 8.29508C9.59217 8.32418 9.66684 8.3392 9.74233 8.3392C9.81782 8.3392 9.89269 8.32418 9.96234 8.29508C10.032 8.26598 10.0951 8.22336 10.1481 8.16965C10.2016 8.11678 10.2442 8.05385 10.2733 7.98449C10.3023 7.91512 10.3174 7.84067 10.3176 7.76546C10.3176 7.61159 10.2565 7.464 10.1477 7.3552C10.0389 7.24639 9.89142 7.1853 9.73756 7.1853H9.7473ZM9.7473 7.37106C9.85046 7.37253 9.94882 7.41474 10.021 7.48844C10.0705 7.54358 10.1032 7.6116 10.1155 7.68464C10.1278 7.75768 10.1191 7.83274 10.0905 7.90103C10.0618 7.96932 10.0143 8.02807 9.95359 8.07043C9.89283 8.11279 9.82129 8.13701 9.7473 8.14031C9.69613 8.14012 9.64554 8.12963 9.59851 8.10947C9.55147 8.08931 9.50901 8.05986 9.47358 8.02293C9.43732 7.98715 9.40849 7.94455 9.38884 7.89755C9.36919 7.85055 9.359 7.80009 9.359 7.74914C9.359 7.6982 9.36919 7.64779 9.38884 7.60079C9.40849 7.55378 9.43732 7.51113 9.47358 7.47535C9.51009 7.44078 9.55291 7.41378 9.5999 7.39588C9.64688 7.37798 9.69705 7.36954 9.7473 7.37106Z" fill="#5B5C64" stroke="#707070" stroke-width="0.0228151"/>
<path d="M11.4575 4.63135C11.3036 4.63135 11.1561 4.69249 11.0473 4.80129C10.9385 4.91009 10.8774 5.05763 10.8774 5.2115C10.8782 5.36367 10.9377 5.50964 11.0435 5.61893C11.1522 5.72569 11.2986 5.78543 11.4509 5.78519C11.526 5.78559 11.6004 5.7711 11.6698 5.74257C11.7391 5.71403 11.8021 5.67199 11.8552 5.61893C11.9336 5.53774 11.9865 5.43533 12.0073 5.32435C12.0281 5.21337 12.0159 5.09871 11.9721 4.99461C11.9284 4.89051 11.8551 4.80156 11.7613 4.73872C11.6675 4.67589 11.5573 4.64196 11.4444 4.64115L11.4575 4.63135ZM11.4575 4.82039C11.5602 4.82099 11.6585 4.86198 11.7312 4.93448C11.8051 5.0079 11.8473 5.10735 11.8486 5.2115C11.8461 5.31445 11.8041 5.41248 11.7312 5.48529C11.6585 5.55779 11.5602 5.59878 11.4575 5.59938C11.4063 5.59981 11.3555 5.59013 11.3081 5.57083C11.2607 5.55153 11.2176 5.52299 11.1812 5.48693C11.1448 5.45087 11.116 5.40798 11.0963 5.36071C11.0766 5.31343 11.0664 5.26271 11.0664 5.2115C11.0665 5.10774 11.1074 5.00823 11.1804 4.93448C11.2545 4.86208 11.3539 4.82118 11.4575 4.82039Z" fill="#5B5C64" stroke="#707070" stroke-width="0.0228151"/>
<path d="M14.0531 2.88745C13.9402 2.88826 13.8301 2.92219 13.7363 2.98503C13.6424 3.04787 13.5691 3.13686 13.5254 3.24096C13.4817 3.34507 13.4696 3.45973 13.4904 3.57071C13.5112 3.68168 13.5641 3.78409 13.6426 3.86528C13.6956 3.91899 13.7587 3.96166 13.8284 3.99076C13.898 4.01987 13.9727 4.03483 14.0482 4.03483C14.1237 4.03483 14.1985 4.01987 14.2682 3.99076C14.3378 3.96166 14.4009 3.91899 14.454 3.86528C14.5326 3.78389 14.5857 3.68119 14.6064 3.56991C14.6271 3.45863 14.6145 3.3437 14.5703 3.23947C14.5262 3.13524 14.4526 3.04628 14.3583 2.98369C14.264 2.9211 14.1534 2.88763 14.0402 2.88745H14.0531ZM14.0531 3.07326C14.1446 3.07241 14.2336 3.10338 14.3048 3.16089C14.3759 3.2184 14.4249 3.29885 14.4432 3.38848C14.4616 3.4781 14.448 3.57132 14.4052 3.65217C14.3624 3.73302 14.2929 3.79648 14.2085 3.83166C14.1241 3.86685 14.0301 3.87157 13.9425 3.84504C13.855 3.81851 13.7792 3.76238 13.7285 3.68624C13.6778 3.61009 13.6552 3.51868 13.6644 3.42767C13.6737 3.33665 13.7144 3.25171 13.7794 3.18735C13.852 3.11455 13.9504 3.07351 14.0531 3.07326Z" fill="#5B5C64" stroke="#707070" stroke-width="0.0228151"/>
<path d="M10.9479 10.4536C10.9337 10.456 10.9212 10.4638 10.9127 10.4754C10.9042 10.4869 10.9004 10.5014 10.9023 10.5156V11.0827C10.9004 11.0969 10.9042 11.1113 10.9127 11.1229C10.9212 11.1344 10.9337 11.1422 10.9479 11.1446H13.327C13.3499 11.1446 13.3662 11.1186 13.3662 11.0827V10.5221C13.3662 10.4862 13.3499 10.4601 13.327 10.4601L10.9479 10.4536ZM20.8266 10.4536C20.8037 10.4536 20.7842 10.4797 20.7842 10.5156V11.0827C20.7842 11.1186 20.8037 11.1446 20.8266 11.1446H23.2057C23.2199 11.1422 23.2326 11.1344 23.2411 11.1229C23.2496 11.1113 23.2534 11.0969 23.2515 11.0827V10.5221C23.2534 10.5079 23.2496 10.4935 23.2411 10.4819C23.2326 10.4704 23.2199 10.4625 23.2057 10.4601L20.8266 10.4536Z" fill="#5B5C64" stroke="#707070" stroke-width="0.0228151"/>
<path d="M16.8057 4.62891H17.3727C17.4052 4.62891 17.4347 4.62888 17.4347 4.668V7.15164C17.4347 7.17446 17.4085 7.19079 17.3727 7.19079H16.8057C16.7699 7.19079 16.7437 7.17446 16.7437 7.15164V4.65497C16.7437 4.65497 16.7699 4.62891 16.8057 4.62891Z" fill="#5B5C64" stroke="#707070" stroke-width="0.0228151"/>
<path d="M16.8057 14.5361H17.3727C17.4052 14.5361 17.4347 14.5361 17.4347 14.5524V17.4598C17.4347 17.4598 17.4085 17.4794 17.3727 17.4794H16.8057C16.7699 17.4794 16.7437 17.4794 16.7437 17.4598V14.5524C16.7437 14.5524 16.7699 14.5361 16.8057 14.5361Z" fill="#5B5C64" stroke="#707070" stroke-width="0.0228151"/>
<path d="M18.4184 10.8009C18.4261 11.0642 18.3553 11.3238 18.2147 11.5465C18.0741 11.7692 17.8702 11.9449 17.6292 12.0511C17.3882 12.1573 17.121 12.1891 16.8618 12.1425C16.6026 12.096 16.3631 11.9731 16.1741 11.7897C15.9851 11.6063 15.8552 11.3707 15.8009 11.113C15.7466 10.8553 15.7704 10.5872 15.8693 10.3431C15.9682 10.099 16.1377 9.89001 16.3561 9.74279C16.5745 9.59558 16.8318 9.51687 17.0951 9.51675C17.2663 9.51416 17.4364 9.54532 17.5956 9.60846C17.7548 9.6716 17.8998 9.76548 18.0227 9.88474C18.1456 10.004 18.2439 10.1463 18.3117 10.3035C18.3796 10.4607 18.4158 10.6297 18.4184 10.8009Z" fill="#BEBEBE" stroke="#707070" stroke-width="0.0228151"/>
<path d="M17.0836 7.46167C16.9701 7.46253 16.8614 7.50825 16.7815 7.58884C16.7015 7.66943 16.6567 7.77838 16.6567 7.89192C16.6578 7.97604 16.6834 8.058 16.7305 8.12767C16.7777 8.19733 16.8442 8.25168 16.9219 8.28393C16.9996 8.31619 17.085 8.32494 17.1676 8.30915C17.2502 8.29335 17.3265 8.25369 17.3868 8.19506C17.4465 8.1349 17.4871 8.05845 17.5036 7.97528C17.52 7.89211 17.5113 7.8059 17.4789 7.72755C17.4465 7.6492 17.3919 7.58218 17.3215 7.53488C17.2512 7.48757 17.1684 7.4621 17.0836 7.46167ZM17.0836 7.60182C17.1218 7.60158 17.1596 7.60896 17.1948 7.62351C17.2301 7.63806 17.2621 7.6595 17.2889 7.68657C17.3424 7.74164 17.3727 7.81515 17.3737 7.89192C17.3726 7.9677 17.3422 8.04011 17.2889 8.094C17.2621 8.12107 17.2301 8.14251 17.1948 8.15706C17.1596 8.17161 17.1218 8.17898 17.0836 8.17874C17.0078 8.1779 16.9353 8.1474 16.8817 8.0938C16.8281 8.04019 16.7976 7.96773 16.7968 7.89192C16.7965 7.85378 16.8039 7.81598 16.8185 7.78072C16.833 7.74546 16.8545 7.71344 16.8815 7.68657C16.9065 7.65707 16.9374 7.63314 16.9722 7.61629C17.007 7.59945 17.045 7.59009 17.0836 7.58879V7.60182Z" fill="#5B5C64" stroke="#707070" stroke-width="0.0228151"/>
<path d="M14.1408 10.3491C14.0275 10.3491 13.9189 10.3941 13.8388 10.4742C13.7587 10.5543 13.7139 10.6628 13.7139 10.7761C13.7149 10.8602 13.7405 10.9422 13.7877 11.0118C13.8348 11.0815 13.9014 11.1358 13.979 11.1681C14.0567 11.2004 14.1421 11.2091 14.2247 11.1933C14.3073 11.1775 14.3836 11.1379 14.4439 11.0792C14.523 10.9981 14.5672 10.8894 14.5677 10.7761C14.5677 10.6628 14.5228 10.5543 14.4427 10.4742C14.3627 10.3941 14.254 10.3491 14.1408 10.3491ZM14.1408 10.4893C14.2171 10.4893 14.2904 10.5194 14.3447 10.5731C14.399 10.6268 14.4299 10.6997 14.4308 10.7761C14.4299 10.8529 14.3995 10.9264 14.3461 10.9814C14.2906 11.0344 14.2174 11.0646 14.1408 11.0662C14.0638 11.0662 13.9901 11.0356 13.9357 10.9812C13.8813 10.9268 13.8507 10.853 13.8507 10.7761C13.8518 10.7003 13.8822 10.6279 13.9355 10.574C13.9623 10.547 13.9943 10.5255 14.0296 10.511C14.0648 10.4964 14.1026 10.489 14.1408 10.4893Z" fill="#5B5C64" stroke="#707070" stroke-width="0.0228151"/>
<path d="M20.0218 10.3491C19.9086 10.3491 19.7999 10.3941 19.7199 10.4742C19.6398 10.5543 19.5947 10.6628 19.5947 10.7761C19.5951 10.8894 19.6396 10.9981 19.7187 11.0792C19.7684 11.1286 19.8294 11.1649 19.8965 11.1851C19.9636 11.2052 20.0345 11.2085 20.1032 11.1948C20.1719 11.181 20.2362 11.1505 20.2904 11.1061C20.3445 11.0616 20.3868 11.0045 20.4137 10.9398C20.4406 10.8751 20.4511 10.8048 20.4443 10.7351C20.4376 10.6654 20.4138 10.5984 20.3751 10.5401C20.3364 10.4817 20.284 10.4337 20.2223 10.4004C20.1607 10.3672 20.0919 10.3495 20.0218 10.3491ZM20.0218 10.4893C20.06 10.489 20.0978 10.4964 20.133 10.511C20.1683 10.5255 20.2002 10.547 20.2271 10.574C20.2804 10.6279 20.3108 10.7003 20.3119 10.7761C20.3119 10.8142 20.3044 10.8519 20.2898 10.8871C20.2752 10.9223 20.2538 10.9543 20.2269 10.9812C20.2 11.0082 20.168 11.0295 20.1328 11.0441C20.0976 11.0587 20.0599 11.0662 20.0218 11.0662C19.9452 11.0646 19.8718 11.0344 19.8163 10.9814C19.7649 10.925 19.7349 10.8524 19.7316 10.7761C19.734 10.7006 19.7641 10.6286 19.8163 10.574C19.871 10.5199 19.9449 10.4895 20.0218 10.4893Z" fill="#5B5C64" stroke="#707070" stroke-width="0.0228151"/>
<path d="M17.0836 13.2998C16.9704 13.2998 16.8617 13.3448 16.7817 13.4249C16.7016 13.505 16.6567 13.6135 16.6567 13.7268C16.6578 13.8109 16.6834 13.8928 16.7305 13.9625C16.7777 14.0322 16.8442 14.0865 16.9219 14.1188C16.9996 14.151 17.085 14.1598 17.1676 14.144C17.2502 14.1282 17.3265 14.0885 17.3868 14.0299C17.4454 13.9696 17.485 13.8935 17.5008 13.8108C17.5166 13.7282 17.5078 13.6427 17.4755 13.565C17.4433 13.4873 17.389 13.4209 17.3194 13.3737C17.2497 13.3266 17.1677 13.3009 17.0836 13.2998ZM17.0836 13.4367C17.1606 13.4367 17.2343 13.4673 17.2887 13.5217C17.3431 13.5761 17.3737 13.6498 17.3737 13.7268C17.3726 13.8026 17.3422 13.875 17.2889 13.9289C17.2621 13.956 17.2301 13.9774 17.1948 13.992C17.1596 14.0065 17.1218 14.0139 17.0836 14.0136C17.0078 14.0128 16.9353 13.9823 16.8817 13.9287C16.8281 13.8751 16.7976 13.8026 16.7968 13.7268C16.7965 13.6886 16.8039 13.6508 16.8185 13.6156C16.833 13.5803 16.8545 13.5483 16.8815 13.5215C16.9354 13.4682 17.0079 13.4378 17.0836 13.4367Z" fill="#5B5C64" stroke="#707070" stroke-width="0.0228151"/>
<path d="M17.0929 13.0553C17.0001 13.055 16.908 13.0733 16.8224 13.1091C16.7367 13.1449 16.6591 13.1976 16.5942 13.2639L16.5453 13.3128L16.5063 13.3683L16.4705 13.4269L16.441 13.4888L16.415 13.554L16.3986 13.6192V13.6877C16.3955 13.7125 16.3955 13.7377 16.3986 13.7626V13.8083L16.2847 13.7789H16.2552L16.1281 13.7398C15.9882 13.6912 15.852 13.6324 15.7207 13.5638V13.5866C15.9411 13.6997 16.1742 13.7861 16.415 13.8441L16.441 13.8278V13.7822C16.4345 13.6881 16.4475 13.5937 16.479 13.5048C16.5105 13.416 16.5601 13.3345 16.6244 13.2656C16.6888 13.1967 16.7665 13.1417 16.853 13.1041C16.9395 13.0665 17.0328 13.0471 17.1271 13.0471C17.2214 13.0471 17.3147 13.0665 17.4012 13.1041C17.4877 13.1417 17.5655 13.1967 17.6298 13.2656C17.6941 13.3345 17.7437 13.416 17.7752 13.5048C17.8068 13.5937 17.8197 13.6881 17.8132 13.7822V13.8278L17.8327 13.8506C18.0796 13.7924 18.3183 13.7037 18.5433 13.5866V13.567C18.4457 13.6168 18.3457 13.6614 18.2435 13.7007L18.1098 13.7496L17.9859 13.7887H17.9532L17.8361 13.818V13.7691V13.6974V13.629L17.8198 13.5605L17.7969 13.4953L17.7643 13.4367L17.7285 13.378L17.6893 13.3226L17.6437 13.2737C17.5117 13.1409 17.3323 13.0659 17.145 13.0651L17.0929 13.0553Z" fill="#7B7B82" stroke="#707070" stroke-width="0.0228151"/>
<path d="M18.9591 10.7997C18.9591 11.2941 18.7627 11.7683 18.4131 12.118C18.0634 12.4676 17.5892 12.6641 17.0948 12.6641C16.7261 12.6641 16.3656 12.5547 16.059 12.3498C15.7524 12.145 15.5136 11.8538 15.3725 11.5132C15.2314 11.1725 15.1943 10.7976 15.2663 10.436C15.3382 10.0743 15.5158 9.7421 15.7765 9.48136C16.0372 9.22062 16.3695 9.04307 16.7311 8.97113C17.0928 8.89919 17.4675 8.9361 17.8081 9.07721C18.1488 9.21832 18.44 9.4573 18.6448 9.7639C18.8497 10.0705 18.9591 10.4309 18.9591 10.7997Z" fill="#5B5C64" stroke="#707070" stroke-width="0.0228151"/>
<path d="M18.591 10.7991C18.5912 11.149 18.4699 11.4881 18.2481 11.7587C18.0262 12.0293 17.7173 12.2145 17.3742 12.2829C17.031 12.3513 16.6748 12.2986 16.3662 12.1337C16.0576 11.9689 15.8157 11.7022 15.6817 11.379C15.5477 11.0558 15.5299 10.6961 15.6314 10.3612C15.7328 10.0263 15.9473 9.73701 16.2381 9.54252C16.529 9.34803 16.8782 9.2604 17.2264 9.29459C17.5746 9.32878 17.9001 9.48262 18.1476 9.72997C18.4312 10.0135 18.5908 10.398 18.591 10.7991Z" fill="#E1E1E1" stroke="#707070" stroke-width="0.0228151"/>
<path d="M17.0899 7.2002C16.261 7.20198 15.4583 7.49101 14.8184 8.01804C14.1785 8.54507 13.7411 9.27754 13.5805 10.0908C13.4199 10.9041 13.5459 11.7479 13.9373 12.4787C14.3288 13.2094 14.9615 13.7819 15.7275 14.0987C16.4935 14.4156 17.3456 14.4571 18.1389 14.2164C18.9321 13.9756 19.6173 13.4674 20.078 12.7782C20.5387 12.0891 20.7463 11.2615 20.6656 10.4365C20.5849 9.61143 20.2209 8.83984 19.6354 8.25304C19.3015 7.91839 18.9045 7.65308 18.4677 7.4724C18.0308 7.29172 17.5627 7.19919 17.0899 7.2002ZM17.0899 7.2198C17.799 7.2198 18.4922 7.43006 19.0818 7.82402C19.6713 8.21799 20.1307 8.77795 20.402 9.43309C20.6734 10.0882 20.7445 10.8091 20.6061 11.5046C20.4678 12.2001 20.1264 12.8389 19.625 13.3403C19.1237 13.8418 18.4848 14.1833 17.7894 14.3216C17.0939 14.4599 16.373 14.3889 15.7179 14.1175C15.0628 13.8462 14.503 13.3866 14.109 12.797C13.7151 12.2074 13.5049 11.5142 13.5049 10.8051C13.5049 9.85422 13.8825 8.94228 14.5548 8.2699C15.2272 7.59751 16.1391 7.2198 17.0899 7.2198ZM17.7679 7.78692V7.83581C17.7559 8.00961 17.6784 8.17236 17.551 8.29123C17.4237 8.4101 17.256 8.47624 17.0818 8.47624C16.9076 8.47624 16.7398 8.4101 16.6125 8.29123C16.4852 8.17236 16.4077 8.00961 16.3957 7.83581V7.79672L16.3762 7.77713C15.8128 7.91002 15.2975 8.19722 14.8882 8.60655C14.4789 9.01588 14.1918 9.53114 14.0589 10.0946L14.0752 10.1207H14.1208C14.3027 10.1207 14.4773 10.1929 14.6059 10.3216C14.7346 10.4503 14.8069 10.6248 14.8069 10.8068C14.8069 10.9887 14.7346 11.1632 14.6059 11.2919C14.4773 11.4206 14.3027 11.4928 14.1208 11.4928H14.0818L14.0589 11.5157C14.1918 12.0799 14.4793 12.596 14.8892 13.0059C15.2991 13.4158 15.8151 13.7034 16.3794 13.8364H16.4022V13.781C16.4022 13.599 16.4745 13.4245 16.6032 13.2958C16.7318 13.1672 16.9064 13.0948 17.0883 13.0948C17.2703 13.0948 17.4447 13.1672 17.5733 13.2958C17.702 13.4245 17.7744 13.599 17.7744 13.781V13.8266L17.7939 13.8461C18.3573 13.7132 18.8726 13.426 19.2819 13.0167C19.6912 12.6074 19.9783 12.0921 20.1112 11.5287L20.0949 11.5026H20.0525C19.8706 11.5026 19.696 11.4303 19.5674 11.3017C19.4387 11.173 19.3664 10.9985 19.3664 10.8166C19.3664 10.6346 19.4387 10.4601 19.5674 10.3314C19.696 10.2027 19.8706 10.1304 20.0525 10.1304H20.0917L20.1112 10.1109C19.9782 9.54718 19.6909 9.0316 19.2817 8.62177C18.8725 8.21194 18.3574 7.924 17.7939 7.79016L17.7679 7.78692ZM17.7842 7.78692C18.3445 7.9193 18.8567 8.20542 19.2632 8.61311C19.6697 9.02081 19.9544 9.53386 20.0852 10.0946H20.0428C19.8552 10.0946 19.6753 10.1691 19.5427 10.3018C19.41 10.4344 19.3356 10.6143 19.3356 10.8019C19.3356 10.9895 19.41 11.1694 19.5427 11.302C19.6753 11.4347 19.8552 11.5092 20.0428 11.5092H20.0852C19.9544 12.0699 19.6697 12.5829 19.2632 12.9906C18.8567 13.3983 18.3445 13.6844 17.7842 13.8168V13.781C17.7842 13.5934 17.7095 13.4135 17.5769 13.2809C17.4443 13.1482 17.2644 13.0737 17.0768 13.0737C16.8892 13.0737 16.7093 13.1482 16.5767 13.2809C16.4441 13.4135 16.3696 13.5934 16.3696 13.781V13.8299C15.8095 13.6972 15.2957 13.4136 14.8892 13.0059C14.4827 12.5983 14.1998 12.0827 14.0686 11.5222H14.111C14.2986 11.5222 14.4785 11.4477 14.6111 11.315C14.7437 11.1824 14.8182 11.0025 14.8182 10.8149C14.8182 10.6273 14.7437 10.4474 14.6111 10.3148C14.4785 10.1821 14.2986 10.1076 14.111 10.1076H14.0686C14.2034 9.55157 14.4897 9.04381 14.896 8.64097C15.3022 8.23812 15.8125 7.95598 16.3696 7.82601V7.86187C16.3696 8.04946 16.4441 8.22936 16.5767 8.362C16.7093 8.49465 16.8892 8.5692 17.0768 8.5692C17.2644 8.5692 17.4443 8.49465 17.5769 8.362C17.7095 8.22936 17.7842 8.04946 17.7842 7.86187V7.81298V7.78692Z" fill="#5B5C64"/>
<path d="M17.7842 7.76738L17.7679 7.78692M17.7679 7.78692V7.83581C17.7559 8.00961 17.6784 8.17236 17.551 8.29123C17.4237 8.4101 17.256 8.47624 17.0818 8.47624C16.9076 8.47624 16.7398 8.4101 16.6125 8.29123C16.4852 8.17236 16.4077 8.00961 16.3957 7.83581V7.79672L16.3762 7.77712C15.8128 7.91002 15.2975 8.19722 14.8882 8.60655C14.4789 9.01588 14.1918 9.53114 14.0589 10.0946L14.0752 10.1207H14.1208C14.3027 10.1207 14.4773 10.1929 14.6059 10.3216C14.7346 10.4503 14.8069 10.6248 14.8069 10.8068C14.8069 10.9887 14.7346 11.1632 14.6059 11.2919C14.4773 11.4206 14.3027 11.4928 14.1208 11.4928H14.0818L14.0589 11.5157C14.1918 12.0799 14.4793 12.596 14.8892 13.0059M17.7679 7.78692L17.7939 7.79016C18.3574 7.924 18.8725 8.21194 19.2817 8.62177C19.6909 9.0316 19.9782 9.54718 20.1112 10.1109L20.0917 10.1304H20.0525C19.8706 10.1304 19.696 10.2027 19.5674 10.3314C19.4387 10.4601 19.3664 10.6346 19.3664 10.8166C19.3664 10.9985 19.4387 11.173 19.5674 11.3017C19.696 11.4303 19.8706 11.5026 20.0525 11.5026H20.0949L20.1112 11.5287C19.9783 12.0921 19.6912 12.6074 19.2819 13.0167C18.8726 13.426 18.3573 13.7132 17.7939 13.8461L17.7744 13.8266V13.781C17.7744 13.599 17.702 13.4245 17.5733 13.2958C17.4447 13.1672 17.2703 13.0948 17.0883 13.0948C16.9064 13.0948 16.7318 13.1672 16.6032 13.2958C16.4745 13.4245 16.4022 13.599 16.4022 13.781V13.8364H16.3794C15.8151 13.7034 15.2991 13.4158 14.8892 13.0059M14.8892 13.0059C15.2957 13.4136 15.8095 13.6972 16.3696 13.8299V13.781C16.3696 13.5934 16.4441 13.4135 16.5767 13.2809C16.7093 13.1482 16.8892 13.0737 17.0768 13.0737C17.2644 13.0737 17.4443 13.1482 17.5769 13.2809C17.7095 13.4135 17.7842 13.5934 17.7842 13.781V13.8168C18.3445 13.6844 18.8567 13.3983 19.2632 12.9906C19.6697 12.5829 19.9544 12.0699 20.0852 11.5092H20.0428C19.8552 11.5092 19.6753 11.4347 19.5427 11.302C19.41 11.1694 19.3356 10.9895 19.3356 10.8019C19.3356 10.6143 19.41 10.4344 19.5427 10.3018C19.6753 10.1691 19.8552 10.0946 20.0428 10.0946H20.0852C19.9544 9.53386 19.6697 9.02081 19.2632 8.61311C18.8567 8.20542 18.3445 7.9193 17.7842 7.78692V7.81298V7.86187C17.7842 8.04946 17.7095 8.22936 17.5769 8.362C17.4443 8.49465 17.2644 8.5692 17.0768 8.5692C16.8892 8.5692 16.7093 8.49465 16.5767 8.362C16.4441 8.22936 16.3696 8.04946 16.3696 7.86187V7.82601C15.8125 7.95598 15.3022 8.23812 14.896 8.64097C14.4897 9.04381 14.2034 9.55157 14.0686 10.1076H14.111C14.2986 10.1076 14.4785 10.1821 14.6111 10.3148C14.7437 10.4474 14.8182 10.6273 14.8182 10.8149C14.8182 11.0025 14.7437 11.1824 14.6111 11.315C14.4785 11.4477 14.2986 11.5222 14.111 11.5222H14.0686C14.1998 12.0827 14.4827 12.5983 14.8892 13.0059ZM17.0899 7.2002C16.261 7.20198 15.4583 7.49101 14.8184 8.01804C14.1785 8.54507 13.7411 9.27754 13.5805 10.0908C13.4199 10.9041 13.5459 11.7479 13.9373 12.4787C14.3288 13.2094 14.9615 13.7819 15.7275 14.0987C16.4935 14.4156 17.3456 14.4571 18.1389 14.2164C18.9321 13.9756 19.6173 13.4674 20.078 12.7782C20.5387 12.0891 20.7463 11.2615 20.6656 10.4365C20.5849 9.61143 20.2209 8.83984 19.6354 8.25304C19.3015 7.91839 18.9045 7.65308 18.4677 7.4724C18.0308 7.29172 17.5627 7.19919 17.0899 7.2002ZM17.0899 7.2198C17.799 7.2198 18.4922 7.43006 19.0818 7.82402C19.6713 8.21799 20.1307 8.77795 20.402 9.43309C20.6734 10.0882 20.7445 10.8091 20.6061 11.5046C20.4678 12.2001 20.1264 12.8389 19.625 13.3403C19.1237 13.8418 18.4848 14.1833 17.7894 14.3216C17.0939 14.4599 16.373 14.3889 15.7179 14.1175C15.0628 13.8462 14.503 13.3866 14.109 12.797C13.7151 12.2074 13.5049 11.5142 13.5049 10.8051C13.5049 9.85422 13.8825 8.94228 14.5548 8.2699C15.2272 7.59751 16.1391 7.2198 17.0899 7.2198Z" stroke="#5B5C64" stroke-width="0.0228151"/>
<path d="M22.2782 4.48713L21.8708 5.18466L22.2782 5.88542H23.0898L23.4938 5.18466L23.0898 4.48713H22.2782ZM22.2619 4.46436H23.1027L23.5199 5.18466L23.1027 5.90825H22.2619L21.8447 5.18466L22.2619 4.46436Z" fill="#707070"/>
<path d="M24.007 7.08948L23.6028 7.79024L24.007 8.48777H24.8184L25.2258 7.79024L24.8184 7.08948H24.007ZM24.007 7.06665H24.8445L25.265 7.79024L24.8445 8.51059H24.007L23.5898 7.79024L24.007 7.06665Z" fill="#707070"/>
<path d="M24.6484 10.0933L24.241 10.7941L24.6484 11.4916H25.46L25.864 10.7941L25.46 10.0933H24.6484ZM24.6484 10.0706H25.486L25.9032 10.7941L25.486 11.5177H24.6484L24.228 10.7941L24.6484 10.0706Z" fill="#707070"/>
<path d="M24.007 13.1598L23.6028 13.8606L24.007 14.5581H24.8184L25.2258 13.8606L24.8184 13.1598H24.007ZM24.007 13.137H24.8445L25.265 13.8606L24.8445 14.5841H24.007L23.5898 13.8606L24.007 13.137Z" fill="#5B5C64"/>
<path d="M22.2792 15.7626L21.8718 16.4602L22.2792 17.1609H23.0908L23.4948 16.4602L23.0908 15.7626H22.2792ZM22.2629 15.7366H23.1037L23.5209 16.4602L23.1037 17.1837H22.2629L21.8457 16.4602L22.2629 15.7366Z" fill="#5B5C64"/>
<path d="M19.7421 17.4384L19.3347 18.1391L19.7421 18.8366H20.5537L20.9577 18.1391L20.5537 17.4384H19.7421ZM19.7421 17.4155H20.5798L21.0001 18.1391L20.5798 18.8595H19.7421L19.3218 18.1391L19.7421 17.4155Z" fill="#5B5C64"/>
<path d="M16.6776 18.0741L16.2734 18.7716L16.6776 19.4723H17.489L17.8964 18.7716L17.489 18.0741H16.6776ZM16.6776 18.0513H17.5185L17.9356 18.7716L17.5185 19.4952H16.6776L16.2603 18.7716L16.6776 18.0513Z" fill="#5B5C64"/>
<path d="M13.6818 17.4955L13.2776 18.1962L13.6818 18.8971H14.4934L14.9008 18.1962L14.4934 17.4955H13.6818ZM13.6818 17.4727H14.5195L14.9398 18.1962L14.5195 18.9198H13.6818L13.2646 18.1962L13.6818 17.4727Z" fill="#5B5C64"/>
<path d="M11.0985 15.7626L10.6911 16.4602L11.0985 17.1609H11.9101L12.3143 16.4602L11.9101 15.7626H11.0985ZM11.0822 15.7366H11.9232L12.3404 16.4602L11.9232 17.1837H11.0822L10.665 16.4602L11.0822 15.7366Z" fill="#5B5C64"/>
<path d="M9.35318 13.1598L8.94897 13.8606L9.35318 14.5581H10.1648L10.5722 13.8606L10.1648 13.1598H9.35318ZM9.35318 13.137H10.1909L10.6112 13.8606L10.1909 14.5841H9.35318L8.93604 13.8606L9.35318 13.137Z" fill="#5B5C64"/>
<path d="M8.77359 10.1534L8.36938 10.8542L8.77359 11.5517H9.58521L9.99261 10.8542L9.58521 10.1534H8.77359ZM8.77359 10.1306H9.61127L10.0316 10.8542L9.61127 11.5746H8.77359L8.35645 10.8542L8.77359 10.1306Z" fill="#5B5C64"/>
<path d="M9.35221 7.08948L8.94799 7.79024L9.35221 8.48777H10.1638L10.5712 7.79024L10.1638 7.08948H9.35221ZM9.35221 7.06665H10.1899L10.6102 7.79024L10.1899 8.51059H9.35221L8.93506 7.79024L9.35221 7.06665Z" fill="#707070"/>
<path d="M11.0287 4.48713L10.6213 5.18466L11.0287 5.88542H11.8403L12.2446 5.18466L11.8403 4.48713H11.0287ZM11.0287 4.46436H11.8664L12.2836 5.18466L11.8664 5.90825H11.0287L10.6084 5.18466L11.0287 4.46436Z" fill="#707070"/>
<path d="M13.6249 2.75471L13.2175 3.45552L13.6249 4.153H14.4365L14.8408 3.45552L14.4365 2.75471H13.6249ZM13.6249 2.73193H14.4626L14.8797 3.45552L14.4626 4.17583H13.6249L13.2046 3.45552L13.6249 2.73193Z" fill="#707070"/>
<path d="M16.6776 2.17914L16.2734 2.87666L16.6776 3.57743H17.489L17.8964 2.87666L17.489 2.17914H16.6776ZM16.6776 2.15308H17.5185L17.9356 2.87666L17.5185 3.60025H16.6776L16.2603 2.87666L16.6776 2.15308Z" fill="#707070"/>
<path d="M19.7421 2.75471L19.3347 3.45552L19.7421 4.153H20.5537L20.9577 3.45552L20.5537 2.75471H19.7421ZM19.7421 2.73193H20.5798L21.0001 3.45552L20.5798 4.17583H19.7421L19.3218 3.45552L19.7421 2.73193Z" fill="#707070"/>
<path d="M16.7736 7.37708L16.4478 7.90183L16.7736 8.42986H17.4255L17.7513 7.90183L17.4255 7.37708H16.7736ZM16.7736 7.35425H17.4255L17.7513 7.90183L17.4255 8.45269H16.7736L16.4478 7.90183L16.7736 7.35425Z" fill="#5B5C64"/>
<path d="M16.7736 13.2167L16.4478 13.7414L16.7736 14.2695H17.4255L17.7513 13.7414L17.4255 13.2167H16.7736ZM16.7736 13.1938H17.4255L17.7513 13.7414L17.4255 14.2923H16.7736L16.4478 13.7414L16.7736 13.1938Z" fill="#5B5C64"/>
<path d="M13.8299 10.2733L13.5041 10.7981L13.8299 11.3228H14.4818L14.8077 10.7981L14.4818 10.2733H13.8299ZM13.8136 10.2505H14.4655L14.7914 10.7981L14.4655 11.3489H13.8136L13.4878 10.7981L13.8136 10.2505Z" fill="#5B5C64"/>
<path d="M19.7098 10.2733L19.3838 10.7981L19.7098 11.3228H20.3615L20.6875 10.7981L20.3615 10.2733H19.7098ZM19.7098 10.2505H20.3615L20.6875 10.7981L20.3615 11.3489H19.7098L19.3838 10.7981L19.7098 10.2505Z" fill="#5B5C64"/>
</svg>
